<?xml version="1.0" encoding="utf-8"?>
<svg viewBox="0 0 64 64" xmlns="http://www.w3.org/2000/svg">
  <defs>
    <linearGradient id="s-body" x1="14" y1="8" x2="48" y2="56" gradientUnits="userSpaceOnUse">
      <stop offset="0" stop-color="#b8f3ff"/>
      <stop offset="0.45" stop-color="#43c7ff"/>
      <stop offset="1" stop-color="#3978ee"/>
    </linearGradient>
    <linearGradient id="s-edge" x1="12" y1="7" x2="50" y2="57" gradientUnits="userSpaceOnUse">
      <stop stop-color="#0f91e8"/>
      <stop offset="1" stop-color="#315bd9"/>
    </linearGradient>
    <filter id="s-shadow" x="-25%" y="-25%" width="150%" height="160%">
      <feDropShadow dx="0" dy="2" stdDeviation="2" flood-color="#1456b8" flood-opacity="0.24"/>
    </filter>
  </defs>

  <g filter="url(#s-shadow)">
    <path
      d="M46 14C41 7 24 7 17 14C10 21 15 27 31 30C45 33 50 39 45 47C39 56 22 56 15 49"
      fill="none"
      stroke="url(#s-edge)"
      stroke-width="16"
      stroke-linecap="round"
      stroke-linejoin="round"
    />
    <path
      d="M46 14C41 7 24 7 17 14C10 21 15 27 31 30C45 33 50 39 45 47C39 56 22 56 15 49"
      fill="none"
      stroke="url(#s-body)"
      stroke-width="12"
      stroke-linecap="round"
      stroke-linejoin="round"
    />
    <path d="M42 12C36 8.5 25 9 19 14" fill="none" stroke="#fff" stroke-opacity="0.72" stroke-width="2.2" stroke-linecap="round"/>
    <path d="M41 47C35 52 25 52 19 48.5" fill="none" stroke="#d8f8ff" stroke-opacity="0.5" stroke-width="1.8" stroke-linecap="round"/>
  </g>

  <ellipse cx="25.2" cy="15.4" rx="2.8" ry="3.3" fill="#102450"/>
  <ellipse cx="35.1" cy="15.4" rx="2.8" ry="3.3" fill="#102450"/>
  <circle cx="24.3" cy="14.3" r="0.9" fill="#fff"/>
  <circle cx="34.2" cy="14.3" r="0.9" fill="#fff"/>
  <ellipse cx="20.5" cy="20" rx="2.4" ry="1.2" fill="#ff8195" fill-opacity="0.82"/>
  <ellipse cx="39.8" cy="20" rx="2.4" ry="1.2" fill="#ff8195" fill-opacity="0.82"/>
  <path d="M28.2 20.2C29.5 21.8 31.5 21.8 32.8 20.2" fill="none" stroke="#1551a5" stroke-width="1.3" stroke-linecap="round"/>
  <circle cx="48.5" cy="9.5" r="1.5" fill="#fff" fill-opacity="0.85"/>
</svg>
